<svg xmlns="http://www.w3.org/2000/svg" xmlns:xlink="http://www.w3.org/1999/xlink" contentStyleType="text/css" data-diagram-type="ACTIVITY" height="1762px" preserveAspectRatio="none" style="width:1133px;height:1762px;background:#FFFFFF;" version="1.1" viewBox="0 0 1133 1762" width="1133px" zoomAndPan="magnify"><title>SSH Setup Workflow for GNS3 Network Devices</title><defs/><g><g class="title" data-source-line="1"><text fill="#000000" font-family="sans-serif" font-size="14" font-weight="bold" lengthAdjust="spacing" textLength="318.958" x="405.9689" y="34.5332">SSH Setup Workflow for GNS3 Network Devices</text></g><ellipse cx="593.9664" cy="58.6094" fill="#222222" rx="10" ry="10" style="stroke:#222222;stroke-width:1;"/><path d="M677.6559,78.6094 L677.6559,112.3125 L657.6559,116.3125 L677.6559,120.3125 L677.6559,154.0156 A0,0 0 0 0 677.6559,154.0156 L921.9982,154.0156 A0,0 0 0 0 921.9982,154.0156 L921.9982,88.6094 L911.9982,78.6094 L677.6559,78.6094 A0,0 0 0 0 677.6559,78.6094" fill="#FEFFDD" style="stroke:#181818;stroke-width:0.5;"/><path d="M911.9982,78.6094 L911.9982,88.6094 L921.9982,88.6094 L911.9982,78.6094" fill="#FEFFDD" style="stroke:#181818;stroke-width:0.5;"/><text fill="#000000" font-family="sans-serif" font-size="13" font-weight="bold" lengthAdjust="spacing" textLength="69.3799" x="683.6559" y="97.1045">&#171;resource&#187;</text><text fill="#000000" font-family="sans-serif" font-size="13" lengthAdjust="spacing" textLength="117.7998" x="683.6559" y="113.4561">projects://{id}/nodes/</text><text fill="#000000" font-family="sans-serif" font-size="13" lengthAdjust="spacing" textLength="147.437" x="683.6559" y="129.8076">sessions://console/{node}</text><text fill="#000000" font-family="sans-serif" font-size="13" lengthAdjust="spacing" textLength="223.3423" x="683.6559" y="146.1592">nodes://{project_id}/{node_id}/template</text><rect fill="#F1F1F1" height="35.0938" rx="12.5" ry="12.5" style="stroke:#1976D2;stroke-width:0.5;" width="127.3789" x="530.277" y="98.7656"/><text fill="#000000" font-family="sans-serif" font-size="12" lengthAdjust="spacing" textLength="107.3789" x="540.277" y="121.2227">Check Prerequisites</text><rect fill="none" height="101.6641" style="stroke:#000000;stroke-width:1.5;" width="422.7803" x="496.6344" y="164.0156"/><path d="M652.9235,164.0156 L652.9235,174.625 L642.9235,184.625 L496.6344,184.625" fill="none" style="stroke:#000000;stroke-width:1.5;"/><text fill="#000000" font-family="sans-serif" font-size="14" lengthAdjust="spacing" textLength="146.2891" x="499.6344" y="179.5488">Check Template Usage</text><path d="M701.2985,194.625 L701.2985,220.1523 L681.2985,224.1523 L701.2985,228.1523 L701.2985,253.6797 A0,0 0 0 0 701.2985,253.6797 L909.4147,253.6797 A0,0 0 0 0 909.4147,253.6797 L909.4147,204.625 L899.4147,194.625 L701.2985,194.625 A0,0 0 0 0 701.2985,194.625" fill="#FEFFDD" style="stroke:#181818;stroke-width:0.5;"/><path d="M899.4147,194.625 L899.4147,204.625 L909.4147,204.625 L899.4147,194.625" fill="#FEFFDD" style="stroke:#181818;stroke-width:0.5;"/><text fill="#000000" font-family="sans-serif" font-size="13" lengthAdjust="spacing" textLength="187.1162" x="707.2985" y="213.1201">Device-specific SSH instructions</text><text fill="#000000" font-family="sans-serif" font-size="13" lengthAdjust="spacing" textLength="107.6689" x="707.2985" y="229.4717">Default credentials</text><text fill="#000000" font-family="sans-serif" font-size="13" lengthAdjust="spacing" textLength="136.5762" x="707.2985" y="245.8232">Configuration examples</text><rect fill="#F1F1F1" height="35.0938" rx="12.5" ry="12.5" style="stroke:#1976D2;stroke-width:0.5;" width="174.6641" x="506.6344" y="206.6055"/><text fill="#000000" font-family="sans-serif" font-size="12" lengthAdjust="spacing" textLength="154.6641" x="516.6344" y="229.0625">Review template 'usage' field</text><polygon fill="#F1F1F1" points="543.5211,285.6797,644.4117,285.6797,656.4117,297.6797,644.4117,309.6797,543.5211,309.6797,531.5211,297.6797,543.5211,285.6797" style="stroke:#1976D2;stroke-width:0.5;"/><text fill="#000000" font-family="sans-serif" font-size="11" lengthAdjust="spacing" textLength="100.8906" x="543.5211" y="302.1807">Console accessible?</text><text fill="#000000" font-family="sans-serif" font-size="11" lengthAdjust="spacing" textLength="17.1177" x="514.4034" y="295.2627">yes</text><text fill="#000000" font-family="sans-serif" font-size="11" lengthAdjust="spacing" textLength="12.2354" x="656.4117" y="295.2627">no</text><rect fill="none" height="441.6797" style="stroke:#000000;stroke-width:1.5;" width="372.6719" x="23" y="319.6797"/><path d="M203.4199,319.6797 L203.4199,330.2891 L193.4199,340.2891 L23,340.2891" fill="none" style="stroke:#000000;stroke-width:1.5;"/><text fill="#000000" font-family="sans-serif" font-size="14" lengthAdjust="spacing" textLength="170.4199" x="26" y="335.2129">Configure SSH via Console</text><path d="M33,357.2891 L33,399.9922 A0,0 0 0 0 33,399.9922 L208.6035,399.9922 A0,0 0 0 0 208.6035,399.9922 L208.6035,382.6406 L228.6035,378.6406 L208.6035,374.6406 L208.6035,367.2891 L198.6035,357.2891 L33,357.2891 A0,0 0 0 0 33,357.2891" fill="#FEFFDD" style="stroke:#181818;stroke-width:0.5;"/><path d="M198.6035,357.2891 L198.6035,367.2891 L208.6035,367.2891 L198.6035,357.2891" fill="#FEFFDD" style="stroke:#181818;stroke-width:0.5;"/><text fill="#000000" font-family="sans-serif" font-size="13" font-weight="bold" lengthAdjust="spacing" textLength="38.2827" x="39" y="375.7842">&#171;tool&#187;</text><text fill="#000000" font-family="sans-serif" font-size="13" lengthAdjust="spacing" textLength="88.8862" x="80.8945" y="375.7842">console_send()</text><text fill="#000000" font-family="sans-serif" font-size="13" lengthAdjust="spacing" textLength="154.6035" x="39" y="392.1357">Device-specific commands</text><rect fill="#F1F1F1" height="35.0938" rx="12.5" ry="12.5" style="stroke:#1976D2;stroke-width:0.5;" width="154.0801" x="228.6035" y="361.0938"/><text fill="#000000" font-family="sans-serif" font-size="12" lengthAdjust="spacing" textLength="134.0801" x="238.6035" y="383.5508">Enter configuration mode</text><rect fill="#F1F1F1" height="35.0938" rx="12.5" ry="12.5" style="stroke:#1976D2;stroke-width:0.5;" width="160.0566" x="225.6152" y="434.9922"/><text fill="#000000" font-family="sans-serif" font-size="12" lengthAdjust="spacing" textLength="140.0566" x="235.6152" y="457.4492">Create administrative user</text><rect fill="#F1F1F1" height="35.0938" rx="12.5" ry="12.5" style="stroke:#1976D2;stroke-width:0.5;" width="126.0488" x="242.6191" y="490.0859"/><text fill="#000000" font-family="sans-serif" font-size="12" lengthAdjust="spacing" textLength="106.0488" x="252.6191" y="512.543">Generate RSA keys</text><rect fill="#F1F1F1" height="35.0938" rx="12.5" ry="12.5" style="stroke:#1976D2;stroke-width:0.5;" width="126.7168" x="242.2852" y="545.1797"/><text fill="#000000" font-family="sans-serif" font-size="12" lengthAdjust="spacing" textLength="106.7168" x="252.2852" y="567.6367">Enable SSH service</text><rect fill="#F1F1F1" height="35.0938" rx="12.5" ry="12.5" style="stroke:#1976D2;stroke-width:0.5;" width="126.7168" x="242.2852" y="600.2734"/><text fill="#000000" font-family="sans-serif" font-size="12" lengthAdjust="spacing" textLength="106.7168" x="252.2852" y="622.7305">Configure VTY lines</text><rect fill="#F1F1F1" height="35.0938" rx="12.5" ry="12.5" style="stroke:#1976D2;stroke-width:0.5;" width="119.3984" x="245.9443" y="655.3672"/><text fill="#000000" font-family="sans-serif" font-size="12" lengthAdjust="spacing" textLength="99.3984" x="255.9443" y="677.8242">Save configuration</text><path d="M70.9937,706.6563 L70.9937,749.3594 A0,0 0 0 0 70.9937,749.3594 L220.6035,749.3594 A0,0 0 0 0 220.6035,749.3594 L220.6035,732.0078 L240.6035,728.0078 L220.6035,724.0078 L220.6035,716.6563 L210.6035,706.6563 L70.9937,706.6563 A0,0 0 0 0 70.9937,706.6563" fill="#FEFFDD" style="stroke:#181818;stroke-width:0.5;"/><path d="M210.6035,706.6563 L210.6035,716.6563 L220.6035,716.6563 L210.6035,706.6563" fill="#FEFFDD" style="stroke:#181818;stroke-width:0.5;"/><text fill="#000000" font-family="sans-serif" font-size="13" font-weight="bold" lengthAdjust="spacing" textLength="38.2827" x="76.9937" y="725.1514">&#171;tool&#187;</text><text fill="#000000" font-family="sans-serif" font-size="13" lengthAdjust="spacing" textLength="86.7153" x="118.8882" y="725.1514">console_read()</text><text fill="#000000" font-family="sans-serif" font-size="13" lengthAdjust="spacing" textLength="66.6821" x="76.9937" y="741.5029">mode="diff"</text><rect fill="#F1F1F1" height="35.0938" rx="12.5" ry="12.5" style="stroke:#1976D2;stroke-width:0.5;" width="130.0801" x="240.6035" y="710.4609"/><text fill="#000000" font-family="sans-serif" font-size="12" lengthAdjust="spacing" textLength="110.0801" x="250.6035" y="732.918">Read console output</text><rect fill="none" height="232.0078" style="stroke:#000000;stroke-width:1.5;" width="392.9644" x="215.2754" y="771.3594"/><path d="M355.2334,771.3594 L355.2334,781.9688 L345.2334,791.9688 L215.2754,791.9688" fill="none" style="stroke:#000000;stroke-width:1.5;"/><text fill="#000000" font-family="sans-serif" font-size="14" lengthAdjust="spacing" textLength="129.958" x="218.2754" y="786.8926">Find Management IP</text><path d="M406.0117,801.9688 L406.0117,835.6719 L386.0117,839.6719 L406.0117,843.6719 L406.0117,877.375 A0,0 0 0 0 406.0117,877.375 L598.2397,877.375 A0,0 0 0 0 598.2397,877.375 L598.2397,811.9688 L588.2397,801.9688 L406.0117,801.9688 A0,0 0 0 0 406.0117,801.9688" fill="#FEFFDD" style="stroke:#181818;stroke-width:0.5;"/><path d="M588.2397,801.9688 L588.2397,811.9688 L598.2397,811.9688 L588.2397,801.9688" fill="#FEFFDD" style="stroke:#181818;stroke-width:0.5;"/><text fill="#000000" font-family="sans-serif" font-size="13" font-weight="bold" lengthAdjust="spacing" textLength="38.2827" x="412.0117" y="820.4639">&#171;tool&#187;</text><text fill="#000000" font-family="sans-serif" font-size="13" lengthAdjust="spacing" textLength="88.8862" x="453.9063" y="820.4639">console_send()</text><text fill="#000000" font-family="sans-serif" font-size="13" lengthAdjust="spacing" textLength="171.228" x="412.0117" y="836.8154">show ip interface brief (Cisco)</text><text fill="#000000" font-family="sans-serif" font-size="13" lengthAdjust="spacing" textLength="153.8672" x="412.0117" y="853.167">/ip address print (MikroTik)</text><text fill="#000000" font-family="sans-serif" font-size="13" lengthAdjust="spacing" textLength="83.0972" x="412.0117" y="869.5186">ip addr (Linux)</text><rect fill="#F1F1F1" height="35.0938" rx="12.5" ry="12.5" style="stroke:#1976D2;stroke-width:0.5;" width="160.7363" x="225.2754" y="822.125"/><text fill="#000000" font-family="sans-serif" font-size="12" lengthAdjust="spacing" textLength="140.7363" x="235.2754" y="844.582">Query interface addresses</text><path d="M368.3359,893.5703 L368.3359,910.9219 L348.3359,914.9219 L368.3359,918.9219 L368.3359,936.2734 A0,0 0 0 0 368.3359,936.2734 L517.9458,936.2734 A0,0 0 0 0 517.9458,936.2734 L517.9458,903.5703 L507.9458,893.5703 L368.3359,893.5703 A0,0 0 0 0 368.3359,893.5703" fill="#FEFFDD" style="stroke:#181818;stroke-width:0.5;"/><path d="M507.9458,893.5703 L507.9458,903.5703 L517.9458,903.5703 L507.9458,893.5703" fill="#FEFFDD" style="stroke:#181818;stroke-width:0.5;"/><text fill="#000000" font-family="sans-serif" font-size="13" font-weight="bold" lengthAdjust="spacing" textLength="38.2827" x="374.3359" y="912.0654">&#171;tool&#187;</text><text fill="#000000" font-family="sans-serif" font-size="13" lengthAdjust="spacing" textLength="86.7153" x="416.2305" y="912.0654">console_read()</text><text fill="#000000" font-family="sans-serif" font-size="13" lengthAdjust="spacing" textLength="105.7202" x="374.3359" y="928.417">mode="last_page"</text><rect fill="#F1F1F1" height="35.0938" rx="12.5" ry="12.5" style="stroke:#1976D2;stroke-width:0.5;" width="85.3848" x="262.9512" y="897.375"/><text fill="#000000" font-family="sans-serif" font-size="12" lengthAdjust="spacing" textLength="65.3848" x="272.9512" y="919.832">Read output</text><rect fill="#F1F1F1" height="35.0938" rx="12.5" ry="12.5" style="stroke:#1976D2;stroke-width:0.5;" width="146.7383" x="232.2744" y="956.2734"/><text fill="#000000" font-family="sans-serif" font-size="12" lengthAdjust="spacing" textLength="126.7383" x="242.2744" y="978.7305">Identify management IP</text><rect fill="none" height="118.0156" style="stroke:#000000;stroke-width:1.5;" width="440.2817" x="199.9385" y="1013.3672"/><path d="M352.3174,1013.3672 L352.3174,1023.9766 L342.3174,1033.9766 L199.9385,1033.9766" fill="none" style="stroke:#000000;stroke-width:1.5;"/><text fill="#000000" font-family="sans-serif" font-size="14" lengthAdjust="spacing" textLength="142.3789" x="202.9385" y="1028.9004">Document in README</text><path d="M421.3486,1043.9766 L421.3486,1077.6797 L401.3486,1081.6797 L421.3486,1085.6797 L421.3486,1119.3828 A0,0 0 0 0 421.3486,1119.3828 L630.2202,1119.3828 A0,0 0 0 0 630.2202,1119.3828 L630.2202,1053.9766 L620.2202,1043.9766 L421.3486,1043.9766 A0,0 0 0 0 421.3486,1043.9766" fill="#FEFFDD" style="stroke:#181818;stroke-width:0.5;"/><path d="M620.2202,1043.9766 L620.2202,1053.9766 L630.2202,1053.9766 L620.2202,1043.9766" fill="#FEFFDD" style="stroke:#181818;stroke-width:0.5;"/><text fill="#000000" font-family="sans-serif" font-size="13" font-weight="bold" lengthAdjust="spacing" textLength="38.2827" x="427.3486" y="1062.4717">&#171;tool&#187;</text><text fill="#000000" font-family="sans-serif" font-size="13" lengthAdjust="spacing" textLength="145.9771" x="469.2432" y="1062.4717">update_project_readme()</text><text fill="#000000" font-family="sans-serif" font-size="13" lengthAdjust="spacing" textLength="70.0845" x="427.3486" y="1078.8232">- IP address</text><text fill="#000000" font-family="sans-serif" font-size="13" lengthAdjust="spacing" textLength="127.1563" x="427.3486" y="1095.1748">- Username/password</text><text fill="#000000" font-family="sans-serif" font-size="13" lengthAdjust="spacing" textLength="60.6836" x="427.3486" y="1111.5264">- SSH port</text><rect fill="#F1F1F1" height="35.0938" rx="12.5" ry="12.5" style="stroke:#1976D2;stroke-width:0.5;" width="191.4102" x="209.9385" y="1064.1328"/><text fill="#000000" font-family="sans-serif" font-size="12" lengthAdjust="spacing" textLength="171.4102" x="219.9385" y="1086.5898">Record mgmt IP and credentials</text><rect fill="none" height="215.2109" style="stroke:#000000;stroke-width:1.5;" width="689.0908" x="42.6755" y="1141.3828"/><path d="M195.8542,1141.3828 L195.8542,1151.9922 L185.8542,1161.9922 L42.6755,1161.9922" fill="none" style="stroke:#000000;stroke-width:1.5;"/><text fill="#000000" font-family="sans-serif" font-size="14" lengthAdjust="spacing" textLength="143.1787" x="45.6755" y="1156.916">Establish SSH Session</text><polygon fill="#F1F1F1" points="236.856,1178.9922,374.4312,1178.9922,386.4312,1190.9922,374.4312,1202.9922,236.856,1202.9922,224.856,1190.9922,236.856,1178.9922" style="stroke:#1976D2;stroke-width:0.5;"/><text fill="#000000" font-family="sans-serif" font-size="11" lengthAdjust="spacing" textLength="137.5752" x="236.856" y="1195.4932">Device on isolated network?</text><text fill="#000000" font-family="sans-serif" font-size="11" lengthAdjust="spacing" textLength="17.1177" x="207.7383" y="1188.5752">yes</text><text fill="#000000" font-family="sans-serif" font-size="11" lengthAdjust="spacing" textLength="12.2354" x="386.4312" y="1188.5752">no</text><path d="M232.7273,1212.9922 L232.7273,1230.3438 L212.7273,1234.3438 L232.7273,1238.3438 L232.7273,1255.6953 A0,0 0 0 0 232.7273,1255.6953 L323.1072,1255.6953 A0,0 0 0 0 323.1072,1255.6953 L323.1072,1222.9922 L313.1072,1212.9922 L232.7273,1212.9922 A0,0 0 0 0 232.7273,1212.9922" fill="#FEFFDD" style="stroke:#181818;stroke-width:0.5;"/><path d="M313.1072,1212.9922 L313.1072,1222.9922 L323.1072,1222.9922 L313.1072,1212.9922" fill="#FEFFDD" style="stroke:#181818;stroke-width:0.5;"/><text fill="#000000" font-family="sans-serif" font-size="13" font-weight="bold" lengthAdjust="spacing" textLength="69.3799" x="238.7273" y="1231.4873">&#171;resource&#187;</text><text fill="#000000" font-family="sans-serif" font-size="13" lengthAdjust="spacing" textLength="52.7427" x="238.7273" y="1247.8389">proxies://</text><rect fill="#F1F1F1" height="35.0938" rx="12.5" ry="12.5" style="stroke:#1976D2;stroke-width:0.5;" width="148.7129" x="64.0144" y="1216.7969"/><text fill="#000000" font-family="sans-serif" font-size="12" lengthAdjust="spacing" textLength="128.7129" x="74.0144" y="1239.2539">Check lab proxy registry</text><path d="M234.0662,1271.8906 L234.0662,1289.2422 L214.0662,1293.2422 L234.0662,1297.2422 L234.0662,1314.5938 A0,0 0 0 0 234.0662,1314.5938 L386.5579,1314.5938 A0,0 0 0 0 386.5579,1314.5938 L386.5579,1281.8906 L376.5579,1271.8906 L234.0662,1271.8906 A0,0 0 0 0 234.0662,1271.8906" fill="#FEFFDD" style="stroke:#181818;stroke-width:0.5;"/><path d="M376.5579,1271.8906 L376.5579,1281.8906 L386.5579,1281.8906 L376.5579,1271.8906" fill="#FEFFDD" style="stroke:#181818;stroke-width:0.5;"/><text fill="#000000" font-family="sans-serif" font-size="13" font-weight="bold" lengthAdjust="spacing" textLength="38.2827" x="240.0662" y="1290.3857">&#171;tool&#187;</text><text fill="#000000" font-family="sans-serif" font-size="13" lengthAdjust="spacing" textLength="89.5972" x="281.9607" y="1290.3857">ssh_configure()</text><text fill="#000000" font-family="sans-serif" font-size="13" lengthAdjust="spacing" textLength="112.9312" x="240.0662" y="1306.7373">proxy="&lt;proxy_id&gt;"</text><rect fill="#F1F1F1" height="35.0938" rx="12.5" ry="12.5" style="stroke:#1976D2;stroke-width:0.5;" width="151.3906" x="62.6755" y="1275.6953"/><text fill="#000000" font-family="sans-serif" font-size="12" lengthAdjust="spacing" textLength="131.3906" x="72.6755" y="1298.1523">Configure SSH via proxy</text><path d="M559.2747,1212.9922 L559.2747,1230.3438 L539.2747,1234.3438 L559.2747,1238.3438 L559.2747,1255.6953 A0,0 0 0 0 559.2747,1255.6953 L711.7664,1255.6953 A0,0 0 0 0 711.7664,1255.6953 L711.7664,1222.9922 L701.7664,1212.9922 L559.2747,1212.9922 A0,0 0 0 0 559.2747,1212.9922" fill="#FEFFDD" style="stroke:#181818;stroke-width:0.5;"/><path d="M701.7664,1212.9922 L701.7664,1222.9922 L711.7664,1222.9922 L701.7664,1212.9922" fill="#FEFFDD" style="stroke:#181818;stroke-width:0.5;"/><text fill="#000000" font-family="sans-serif" font-size="13" font-weight="bold" lengthAdjust="spacing" textLength="38.2827" x="565.2747" y="1231.4873">&#171;tool&#187;</text><text fill="#000000" font-family="sans-serif" font-size="13" lengthAdjust="spacing" textLength="89.5972" x="607.1692" y="1231.4873">ssh_configure()</text><text fill="#000000" font-family="sans-serif" font-size="13" lengthAdjust="spacing" textLength="119.2534" x="565.2747" y="1247.8389">Standard connection</text><rect fill="#F1F1F1" height="35.0938" rx="12.5" ry="12.5" style="stroke:#1976D2;stroke-width:0.5;" width="132.7168" x="406.5579" y="1216.7969"/><text fill="#000000" font-family="sans-serif" font-size="12" lengthAdjust="spacing" textLength="112.7168" x="416.5579" y="1239.2539">Configure direct SSH</text><polygon fill="#F1F1F1" points="305.6436,1320.5938,317.6436,1332.5938,305.6436,1344.5938,293.6436,1332.5938,305.6436,1320.5938" style="stroke:#1976D2;stroke-width:0.5;"/><rect fill="none" height="385.1641" style="stroke:#000000;stroke-width:1.5;" width="767.5754" x="11" y="1366.5938"/><path d="M122.9443,1366.5938 L122.9443,1377.2031 L112.9443,1387.2031 L11,1387.2031" fill="none" style="stroke:#000000;stroke-width:1.5;"/><text fill="#000000" font-family="sans-serif" font-size="14" lengthAdjust="spacing" textLength="101.9443" x="14" y="1382.127">Test Connection</text><path d="M401.0078,1397.2031 L401.0078,1422.7305 L381.0078,1426.7305 L401.0078,1430.7305 L401.0078,1456.2578 A0,0 0 0 0 401.0078,1456.2578 L557.0986,1456.2578 A0,0 0 0 0 557.0986,1456.2578 L557.0986,1407.2031 L547.0986,1397.2031 L401.0078,1397.2031 A0,0 0 0 0 401.0078,1397.2031" fill="#FEFFDD" style="stroke:#181818;stroke-width:0.5;"/><path d="M547.0986,1397.2031 L547.0986,1407.2031 L557.0986,1407.2031 L547.0986,1397.2031" fill="#FEFFDD" style="stroke:#181818;stroke-width:0.5;"/><text fill="#000000" font-family="sans-serif" font-size="13" font-weight="bold" lengthAdjust="spacing" textLength="38.2827" x="407.0078" y="1415.6982">&#171;tool&#187;</text><text fill="#000000" font-family="sans-serif" font-size="13" lengthAdjust="spacing" textLength="93.1963" x="448.9023" y="1415.6982">ssh_command()</text><text fill="#000000" font-family="sans-serif" font-size="13" lengthAdjust="spacing" textLength="120.6436" x="407.0078" y="1432.0498">show version (Cisco)</text><text fill="#000000" font-family="sans-serif" font-size="13" lengthAdjust="spacing" textLength="98.2681" x="407.0078" y="1448.4014">uname -a (Linux)</text><rect fill="#F1F1F1" height="35.0938" rx="12.5" ry="12.5" style="stroke:#1976D2;stroke-width:0.5;" width="150.7285" x="230.2793" y="1409.1836"/><text fill="#000000" font-family="sans-serif" font-size="12" lengthAdjust="spacing" textLength="130.7285" x="240.2793" y="1431.6406">Execute show command</text><polygon fill="#F1F1F1" points="275.3855,1476.2578,335.9016,1476.2578,347.9016,1488.2578,335.9016,1500.2578,275.3855,1500.2578,263.3855,1488.2578,275.3855,1476.2578" style="stroke:#1976D2;stroke-width:0.5;"/><text fill="#000000" font-family="sans-serif" font-size="11" lengthAdjust="spacing" textLength="60.5161" x="275.3855" y="1492.7588">SSH works?</text><text fill="#000000" font-family="sans-serif" font-size="11" lengthAdjust="spacing" textLength="17.1177" x="246.2678" y="1485.8408">yes</text><text fill="#000000" font-family="sans-serif" font-size="11" lengthAdjust="spacing" textLength="12.2354" x="347.9016" y="1485.8408">no</text><path d="M201.0403,1510.2578 L201.0403,1527.6094 L181.0403,1531.6094 L201.0403,1535.6094 L201.0403,1552.9609 A0,0 0 0 0 201.0403,1552.9609 L384.6482,1552.9609 A0,0 0 0 0 384.6482,1552.9609 L384.6482,1520.2578 L374.6482,1510.2578 L201.0403,1510.2578 A0,0 0 0 0 201.0403,1510.2578" fill="#FEFFDD" style="stroke:#181818;stroke-width:0.5;"/><path d="M374.6482,1510.2578 L374.6482,1520.2578 L384.6482,1520.2578 L374.6482,1510.2578" fill="#FEFFDD" style="stroke:#181818;stroke-width:0.5;"/><text fill="#000000" font-family="sans-serif" font-size="13" font-weight="bold" lengthAdjust="spacing" textLength="69.3799" x="207.0403" y="1528.7529">&#171;resource&#187;</text><text fill="#000000" font-family="sans-serif" font-size="13" lengthAdjust="spacing" textLength="162.6079" x="207.0403" y="1545.1045">sessions://ssh/{node_name}</text><rect fill="#F1F1F1" height="35.0938" rx="12.5" ry="12.5" style="stroke:#1976D2;stroke-width:0.5;" width="130.0449" x="50.9954" y="1514.0625"/><text fill="#000000" font-family="sans-serif" font-size="12" lengthAdjust="spacing" textLength="110.0449" x="60.9954" y="1536.5195">Verify session status</text><path d="M224.7268,1587.9609 L224.7268,1605.3125 L204.7268,1609.3125 L224.7268,1613.3125 L224.7268,1630.6641 A0,0 0 0 0 224.7268,1630.6641 L416.2439,1630.6641 A0,0 0 0 0 416.2439,1630.6641 L416.2439,1597.9609 L406.2439,1587.9609 L224.7268,1587.9609 A0,0 0 0 0 224.7268,1587.9609" fill="#FEFFDD" style="stroke:#181818;stroke-width:0.5;"/><path d="M406.2439,1587.9609 L406.2439,1597.9609 L416.2439,1597.9609 L406.2439,1587.9609" fill="#FEFFDD" style="stroke:#181818;stroke-width:0.5;"/><text fill="#000000" font-family="sans-serif" font-size="13" font-weight="bold" lengthAdjust="spacing" textLength="38.2827" x="230.7268" y="1606.4561">&#171;tool&#187;</text><text fill="#000000" font-family="sans-serif" font-size="13" lengthAdjust="spacing" textLength="122.8462" x="272.6213" y="1606.4561">console_disconnect()</text><text fill="#000000" font-family="sans-serif" font-size="13" lengthAdjust="spacing" textLength="170.5171" x="230.7268" y="1622.8076">SSH provides better reliability</text><rect fill="#F1F1F1" height="35.0938" rx="12.5" ry="12.5" style="stroke:#1976D2;stroke-width:0.5;" width="177.418" x="27.3088" y="1591.7656"/><text fill="#000000" font-family="sans-serif" font-size="12" lengthAdjust="spacing" textLength="157.418" x="37.3088" y="1614.2227">Disconnect console (optional)</text><rect fill="#90EE90" height="35.0938" rx="12.5" ry="12.5" style="stroke:#1976D2;stroke-width:0.5;" width="134.0586" x="48.9885" y="1662.6641"/><text fill="#000000" font-family="sans-serif" font-size="12" lengthAdjust="spacing" textLength="114.0586" x="58.9885" y="1685.1211">SSH Setup Complete</text><ellipse cx="116.0178" cy="1728.7578" fill="none" rx="11" ry="11" style="stroke:#222222;stroke-width:1;"/><ellipse cx="116.0178" cy="1728.7578" fill="#222222" rx="6" ry="6" style="stroke:#222222;stroke-width:1;"/><path d="M574.2947,1510.2578 L574.2947,1543.9609 L554.2947,1547.9609 L574.2947,1551.9609 L574.2947,1585.6641 A0,0 0 0 0 574.2947,1585.6641 L758.5754,1585.6641 A0,0 0 0 0 758.5754,1585.6641 L758.5754,1520.2578 L748.5754,1510.2578 L574.2947,1510.2578 A0,0 0 0 0 574.2947,1510.2578" fill="#FEFFDD" style="stroke:#181818;stroke-width:0.5;"/><path d="M748.5754,1510.2578 L748.5754,1520.2578 L758.5754,1520.2578 L748.5754,1510.2578" fill="#FEFFDD" style="stroke:#181818;stroke-width:0.5;"/><text fill="#000000" font-family="sans-serif" font-size="13" lengthAdjust="spacing" textLength="163.2808" x="580.2947" y="1528.7529">- Verify SSH service running</text><text fill="#000000" font-family="sans-serif" font-size="13" lengthAdjust="spacing" textLength="120.6436" x="580.2947" y="1545.1045">- Check firewall rules</text><text fill="#000000" font-family="sans-serif" font-size="13" lengthAdjust="spacing" textLength="148.8335" x="580.2947" y="1561.4561">- Confirm management IP</text><text fill="#000000" font-family="sans-serif" font-size="13" lengthAdjust="spacing" textLength="107.6499" x="580.2947" y="1577.8076">- Verify credentials</text><rect fill="#FFCCCC" height="35.0938" rx="12.5" ry="12.5" style="stroke:#1976D2;stroke-width:0.5;" width="118.0508" x="436.2439" y="1530.4141"/><text fill="#000000" font-family="sans-serif" font-size="12" lengthAdjust="spacing" textLength="98.0508" x="446.2439" y="1552.8711">Troubleshoot SSH</text><ellipse cx="495.2693" cy="1631.6641" fill="none" rx="11" ry="11" style="stroke:#222222;stroke-width:1;"/><ellipse cx="495.2693" cy="1631.6641" fill="#222222" rx="6" ry="6" style="stroke:#222222;stroke-width:1;"/><path d="M986.0032,319.6797 L986.0032,345.207 L966.0032,349.207 L986.0032,353.207 L986.0032,378.7344 A0,0 0 0 0 986.0032,378.7344 L1121.8958,378.7344 A0,0 0 0 0 1121.8958,378.7344 L1121.8958,329.6797 L1111.8958,319.6797 L986.0032,319.6797 A0,0 0 0 0 986.0032,319.6797" fill="#FEFFDD" style="stroke:#181818;stroke-width:0.5;"/><path d="M1111.8958,319.6797 L1111.8958,329.6797 L1121.8958,329.6797 L1111.8958,319.6797" fill="#FEFFDD" style="stroke:#181818;stroke-width:0.5;"/><text fill="#000000" font-family="sans-serif" font-size="13" font-weight="bold" lengthAdjust="spacing" textLength="38.2827" x="992.0032" y="338.1748">&#171;tool&#187;</text><text fill="#000000" font-family="sans-serif" font-size="13" lengthAdjust="spacing" textLength="62.1499" x="1033.8977" y="338.1748">set_node()</text><text fill="#000000" font-family="sans-serif" font-size="13" lengthAdjust="spacing" textLength="76.7939" x="992.0032" y="354.5264">action="start"</text><text fill="#000000" font-family="sans-serif" font-size="13" lengthAdjust="spacing" textLength="114.8926" x="992.0032" y="370.8779">Wait 10-60 seconds</text><rect fill="#FFCCCC" height="35.0938" rx="12.5" ry="12.5" style="stroke:#1976D2;stroke-width:0.5;" width="167.4277" x="798.5754" y="331.6602"/><text fill="#000000" font-family="sans-serif" font-size="12" lengthAdjust="spacing" textLength="147.4277" x="808.5754" y="354.1172">Start node and wait for boot</text><ellipse cx="882.2893" cy="424.7344" fill="none" rx="11" ry="11" style="stroke:#222222;stroke-width:1;"/><ellipse cx="882.2893" cy="424.7344" fill="#222222" rx="6" ry="6" style="stroke:#222222;stroke-width:1;"/><line style="stroke:#181818;stroke-width:1;" x1="593.9664" x2="593.9664" y1="68.6094" y2="98.7656"/><polygon fill="#181818" points="589.9664,88.7656,593.9664,98.7656,597.9664,88.7656,593.9664,92.7656" style="stroke:#181818;stroke-width:1;"/><line style="stroke:#181818;stroke-width:1;" x1="593.9664" x2="593.9664" y1="133.8594" y2="206.6055"/><polygon fill="#181818" points="589.9664,196.6055,593.9664,206.6055,597.9664,196.6055,593.9664,200.6055" style="stroke:#181818;stroke-width:1;"/><line style="stroke:#181818;stroke-width:1;" x1="305.6436" x2="305.6436" y1="396.1875" y2="434.9922"/><polygon fill="#181818" points="301.6436,424.9922,305.6436,434.9922,309.6436,424.9922,305.6436,428.9922" style="stroke:#181818;stroke-width:1;"/><line style="stroke:#181818;stroke-width:1;" x1="305.6436" x2="305.6436" y1="470.0859" y2="490.0859"/><polygon fill="#181818" points="301.6436,480.0859,305.6436,490.0859,309.6436,480.0859,305.6436,484.0859" style="stroke:#181818;stroke-width:1;"/><line style="stroke:#181818;stroke-width:1;" x1="305.6436" x2="305.6436" y1="525.1797" y2="545.1797"/><polygon fill="#181818" points="301.6436,535.1797,305.6436,545.1797,309.6436,535.1797,305.6436,539.1797" style="stroke:#181818;stroke-width:1;"/><line style="stroke:#181818;stroke-width:1;" x1="305.6436" x2="305.6436" y1="580.2734" y2="600.2734"/><polygon fill="#181818" points="301.6436,590.2734,305.6436,600.2734,309.6436,590.2734,305.6436,594.2734" style="stroke:#181818;stroke-width:1;"/><line style="stroke:#181818;stroke-width:1;" x1="305.6436" x2="305.6436" y1="635.3672" y2="655.3672"/><polygon fill="#181818" points="301.6436,645.3672,305.6436,655.3672,309.6436,645.3672,305.6436,649.3672" style="stroke:#181818;stroke-width:1;"/><line style="stroke:#181818;stroke-width:1;" x1="305.6436" x2="305.6436" y1="690.4609" y2="710.4609"/><polygon fill="#181818" points="301.6436,700.4609,305.6436,710.4609,309.6436,700.4609,305.6436,704.4609" style="stroke:#181818;stroke-width:1;"/><line style="stroke:#181818;stroke-width:1;" x1="305.6436" x2="305.6436" y1="857.2188" y2="897.375"/><polygon fill="#181818" points="301.6436,887.375,305.6436,897.375,309.6436,887.375,305.6436,891.375" style="stroke:#181818;stroke-width:1;"/><line style="stroke:#181818;stroke-width:1;" x1="305.6436" x2="305.6436" y1="932.4688" y2="956.2734"/><polygon fill="#181818" points="301.6436,946.2734,305.6436,956.2734,309.6436,946.2734,305.6436,950.2734" style="stroke:#181818;stroke-width:1;"/><line style="stroke:#181818;stroke-width:1;" x1="305.6436" x2="305.6436" y1="745.5547" y2="822.125"/><polygon fill="#181818" points="301.6436,812.125,305.6436,822.125,309.6436,812.125,305.6436,816.125" style="stroke:#181818;stroke-width:1;"/><line style="stroke:#181818;stroke-width:1;" x1="305.6436" x2="305.6436" y1="991.3672" y2="1064.1328"/><polygon fill="#181818" points="301.6436,1054.1328,305.6436,1064.1328,309.6436,1054.1328,305.6436,1058.1328" style="stroke:#181818;stroke-width:1;"/><line style="stroke:#181818;stroke-width:1;" x1="138.3708" x2="138.3708" y1="1251.8906" y2="1275.6953"/><polygon fill="#181818" points="134.3708,1265.6953,138.3708,1275.6953,142.3708,1265.6953,138.3708,1269.6953" style="stroke:#181818;stroke-width:1;"/><line style="stroke:#181818;stroke-width:1;" x1="224.856" x2="138.3708" y1="1190.9922" y2="1190.9922"/><line style="stroke:#181818;stroke-width:1;" x1="138.3708" x2="138.3708" y1="1190.9922" y2="1216.7969"/><polygon fill="#181818" points="134.3708,1206.7969,138.3708,1216.7969,142.3708,1206.7969,138.3708,1210.7969" style="stroke:#181818;stroke-width:1;"/><line style="stroke:#181818;stroke-width:1;" x1="386.4312" x2="472.9163" y1="1190.9922" y2="1190.9922"/><line style="stroke:#181818;stroke-width:1;" x1="472.9163" x2="472.9163" y1="1190.9922" y2="1216.7969"/><polygon fill="#181818" points="468.9163,1206.7969,472.9163,1216.7969,476.9163,1206.7969,472.9163,1210.7969" style="stroke:#181818;stroke-width:1;"/><line style="stroke:#181818;stroke-width:1;" x1="138.3708" x2="138.3708" y1="1310.7891" y2="1332.5938"/><line style="stroke:#181818;stroke-width:1;" x1="138.3708" x2="293.6436" y1="1332.5938" y2="1332.5938"/><polygon fill="#181818" points="283.6436,1328.5938,293.6436,1332.5938,283.6436,1336.5938,287.6436,1332.5938" style="stroke:#181818;stroke-width:1;"/><line style="stroke:#181818;stroke-width:1;" x1="472.9163" x2="472.9163" y1="1251.8906" y2="1332.5938"/><line style="stroke:#181818;stroke-width:1;" x1="472.9163" x2="317.6436" y1="1332.5938" y2="1332.5938"/><polygon fill="#181818" points="327.6436,1328.5938,317.6436,1332.5938,327.6436,1336.5938,323.6436,1332.5938" style="stroke:#181818;stroke-width:1;"/><line style="stroke:#181818;stroke-width:1;" x1="305.6436" x2="305.6436" y1="1099.2266" y2="1178.9922"/><polygon fill="#181818" points="301.6436,1168.9922,305.6436,1178.9922,309.6436,1168.9922,305.6436,1172.9922" style="stroke:#181818;stroke-width:1;"/><line style="stroke:#181818;stroke-width:1;" x1="116.0178" x2="116.0178" y1="1549.1563" y2="1591.7656"/><polygon fill="#181818" points="112.0178,1581.7656,116.0178,1591.7656,120.0178,1581.7656,116.0178,1585.7656" style="stroke:#181818;stroke-width:1;"/><line style="stroke:#181818;stroke-width:1;" x1="116.0178" x2="116.0178" y1="1626.8594" y2="1662.6641"/><polygon fill="#181818" points="112.0178,1652.6641,116.0178,1662.6641,120.0178,1652.6641,116.0178,1656.6641" style="stroke:#181818;stroke-width:1;"/><line style="stroke:#181818;stroke-width:1;" x1="116.0178" x2="116.0178" y1="1697.7578" y2="1717.7578"/><polygon fill="#181818" points="112.0178,1707.7578,116.0178,1717.7578,120.0178,1707.7578,116.0178,1711.7578" style="stroke:#181818;stroke-width:1;"/><line style="stroke:#181818;stroke-width:1;" x1="495.2693" x2="495.2693" y1="1565.5078" y2="1620.6641"/><polygon fill="#181818" points="491.2693,1610.6641,495.2693,1620.6641,499.2693,1610.6641,495.2693,1614.6641" style="stroke:#181818;stroke-width:1;"/><line style="stroke:#181818;stroke-width:1;" x1="263.3855" x2="116.0178" y1="1488.2578" y2="1488.2578"/><line style="stroke:#181818;stroke-width:1;" x1="116.0178" x2="116.0178" y1="1488.2578" y2="1514.0625"/><polygon fill="#181818" points="112.0178,1504.0625,116.0178,1514.0625,120.0178,1504.0625,116.0178,1508.0625" style="stroke:#181818;stroke-width:1;"/><line style="stroke:#181818;stroke-width:1;" x1="347.9016" x2="495.2693" y1="1488.2578" y2="1488.2578"/><line style="stroke:#181818;stroke-width:1;" x1="495.2693" x2="495.2693" y1="1488.2578" y2="1530.4141"/><polygon fill="#181818" points="491.2693,1520.4141,495.2693,1530.4141,499.2693,1520.4141,495.2693,1524.4141" style="stroke:#181818;stroke-width:1;"/><line style="stroke:#181818;stroke-width:1;" x1="305.6436" x2="305.6436" y1="1444.2773" y2="1476.2578"/><polygon fill="#181818" points="301.6436,1466.2578,305.6436,1476.2578,309.6436,1466.2578,305.6436,1470.2578" style="stroke:#181818;stroke-width:1;"/><line style="stroke:#181818;stroke-width:1;" x1="305.6436" x2="305.6436" y1="1344.5938" y2="1409.1836"/><polygon fill="#181818" points="301.6436,1399.1836,305.6436,1409.1836,309.6436,1399.1836,305.6436,1403.1836" style="stroke:#181818;stroke-width:1;"/><line style="stroke:#181818;stroke-width:1;" x1="882.2893" x2="882.2893" y1="366.7539" y2="413.7344"/><polygon fill="#181818" points="878.2893,403.7344,882.2893,413.7344,886.2893,403.7344,882.2893,407.7344" style="stroke:#181818;stroke-width:1;"/><line style="stroke:#181818;stroke-width:1;" x1="531.5211" x2="305.6436" y1="297.6797" y2="297.6797"/><line style="stroke:#181818;stroke-width:1;" x1="305.6436" x2="305.6436" y1="297.6797" y2="361.0938"/><polygon fill="#181818" points="301.6436,351.0938,305.6436,361.0938,309.6436,351.0938,305.6436,355.0938" style="stroke:#181818;stroke-width:1;"/><line style="stroke:#181818;stroke-width:1;" x1="656.4117" x2="882.2893" y1="297.6797" y2="297.6797"/><line style="stroke:#181818;stroke-width:1;" x1="882.2893" x2="882.2893" y1="297.6797" y2="331.6602"/><polygon fill="#181818" points="878.2893,321.6602,882.2893,331.6602,886.2893,321.6602,882.2893,325.6602" style="stroke:#181818;stroke-width:1;"/><line style="stroke:#181818;stroke-width:1;" x1="593.9664" x2="593.9664" y1="241.6992" y2="285.6797"/><polygon fill="#181818" points="589.9664,275.6797,593.9664,285.6797,597.9664,275.6797,593.9664,279.6797" style="stroke:#181818;stroke-width:1;"/><!--SRC=[fLPHRzis47xNhpWu3xK314uRj4Fi94DdErs1fUXijyMU35ewsPmbKYCf9qQGNxIVqBV-iXufIfOSTSaslwJL7NdttNttyGmt2S9izYlCqEGPV95g4oVo5cAfuDs7sHbyG7DB7s6CMnwY3lI6YumfbiAIXPkLahc8HZ8XzwDhzwjviD3mBJSxk0y0VccwNrpCfKokhk1eSdRzwdhSvZ55BNCLelMYcyycfsrUepM66-ToDdbz_TgwI1MXybczFF_fpVXLy104sZ1bWc3W3i17XGh_ohdc1lKm4D8WABvQ6xhW-FZRtye7__Rr-9W-PKh-YQ7HWtx_daSFVI4Zr7qoQDIQIs4D8VsH2VRlhV61RCx9dl2d5_Qaixf_6KopX1aCK4HW4mW2AfpXXkw3Jf7ctFl09yrMs76b74of6NWBvNbuaLlZ2uWv9j7G1QwX0T-y4vrXo6CUkePpeOtAGnjBUwUOvOc1K664md2M5Dz7KiHybIlcqi8xHa7HcggigROyXkweW4zj3srDbWd-t0EpHW7T7UgUBM8DdR-rOD-MC_372uW4SY8CAWWRqLCgtT2P7S84um9WqJ93ZBBj0j-8XQOKkptlSLY4KAOf4r41Sjy15tkaqDQLHIaNdEf4qRS8kKPLH1-yGu7AkandRs63EpqiasPBFr7aR0Dwmnxlv_aVa721vP4PewiRC8S-YocogCG2CZTPRlu5U8Am1syBTzc9U1ntcdW17e9cPwuvsMwO84Qbn0Du_x5goUyvgXqnXneJiz3M9w8nqIMK0zOzfobwJMB3izgTIyNHaedhK9PUVVBmiMWGoHUwDtoZv9nlIXVl0TtVkCZlUcrDTULyLCOdyssfOyAqMMHs7jlYl7VZ4-yWhHTns5BgiGnpP-O2ffEtuvj9LUefXgHYaAvIUnY8gFN1V4x-UHOHGHUbz5WOALP0JjojHKshJv-8iuAbsC-OrYJxKMMnXCwaCa-HPq8YkqouNlj7nMbZ2SgAH365GBwSgai9qbN54tCe5iNOE15CsD8AyDqE5AxiFEw6tk5H2Lh5k_ZP6xZJO_-fsRV6a9QYvA8-4QogkDRhHJd8-qeNWNUNdGltbvJ_gdEOWFjFeX6wGlOUPnDnHIsqIVtVL6Q6cCIKanM1JlrRSn4a5ItjdQCsLgZzqRrMts6OKqPkdBsmFeUZHPhElIa9MrIMEGSwa5jomWdxXoct7BFDiupIhPJwZCeEft-tWGXhSlrV-5Hx-Gc7VzTjXWy_ujVOWd75gsIzApDRIPRqdjlQKfUYwh9wV-sSAhdbj7Z04erzGXKcd2rvGflO3n8xEZ-TJCvF1_j5S2JjAs-mJ4eRcRMob1Qp4Vq6Srh9wEMZvicdY7e2lWMrLn9KBWGNgvfJCVenKV-M9Gav55j7PRRiLcbJP1_7EDnc3eXUHrPnlewnn3UpowDRw9mMtp9kt9Ay9Bmj6rUJvMWMzgJl4tEpSzbn-sWX1L_iTIzFJzwSaZDrDMhiLpx98i7l]--></g></svg>