<svg xmlns="http://www.w3.org/2000/svg" xmlns:xlink="http://www.w3.org/1999/xlink" contentStyleType="text/css" data-diagram-type="ACTIVITY" height="1707px" preserveAspectRatio="none" style="width:1114px;height:1707px;background:#FFFFFF;" version="1.1" viewBox="0 0 1114 1707" width="1114px" zoomAndPan="magnify"><title>Topology Discovery Workflow for GNS3 Labs</title><defs/><g><g class="title" data-source-line="1"><text fill="#000000" font-family="sans-serif" font-size="14" font-weight="bold" lengthAdjust="spacing" textLength="301.8203" x="404.6226" y="34.5332">Topology Discovery Workflow for GNS3 Labs</text></g><ellipse cx="565.2114" cy="58.6094" fill="#222222" rx="10" ry="10" style="stroke:#222222;stroke-width:1;"/><polygon fill="#F1F1F1" points="521.7996,88.6094,608.6233,88.6094,620.6233,100.6094,608.6233,112.6094,521.7996,112.6094,509.7996,100.6094,521.7996,88.6094" style="stroke:#1976D2;stroke-width:0.5;"/><text fill="#000000" font-family="sans-serif" font-size="11" lengthAdjust="spacing" textLength="86.8237" x="521.7996" y="105.1104">Project specified?</text><text fill="#000000" font-family="sans-serif" font-size="11" lengthAdjust="spacing" textLength="17.1177" x="492.6819" y="98.1924">yes</text><text fill="#000000" font-family="sans-serif" font-size="11" lengthAdjust="spacing" textLength="12.2354" x="620.6233" y="98.1924">no</text><rect fill="#F1F1F1" height="35.0938" rx="12.5" ry="12.5" style="stroke:#1976D2;stroke-width:0.5;" width="131.3867" x="423.3276" y="122.6094"/><text fill="#000000" font-family="sans-serif" font-size="12" lengthAdjust="spacing" textLength="111.3867" x="433.3276" y="145.0664">Use specified project</text><rect fill="none" height="147.4063" style="stroke:#000000;stroke-width:1.5;" width="236.75" x="574.7144" y="122.6094"/><path d="M671.0864,122.6094 L671.0864,133.2188 L661.0864,143.2188 L574.7144,143.2188" fill="none" style="stroke:#000000;stroke-width:1.5;"/><text fill="#000000" font-family="sans-serif" font-size="14" lengthAdjust="spacing" textLength="86.3721" x="577.7144" y="138.1426">Select Project</text><path d="M711.0845,160.2188 L711.0845,177.5703 L691.0845,181.5703 L711.0845,185.5703 L711.0845,202.9219 A0,0 0 0 0 711.0845,202.9219 L801.4644,202.9219 A0,0 0 0 0 801.4644,202.9219 L801.4644,170.2188 L791.4644,160.2188 L711.0845,160.2188 A0,0 0 0 0 711.0845,160.2188" fill="#FEFFDD" style="stroke:#181818;stroke-width:0.5;"/><path d="M791.4644,160.2188 L791.4644,170.2188 L801.4644,170.2188 L791.4644,160.2188" fill="#FEFFDD" style="stroke:#181818;stroke-width:0.5;"/><text fill="#000000" font-family="sans-serif" font-size="13" font-weight="bold" lengthAdjust="spacing" textLength="69.3799" x="717.0845" y="178.7139">&#171;resource&#187;</text><text fill="#000000" font-family="sans-serif" font-size="13" lengthAdjust="spacing" textLength="56.3545" x="717.0845" y="195.0654">projects://</text><rect fill="#F1F1F1" height="35.0938" rx="12.5" ry="12.5" style="stroke:#1976D2;stroke-width:0.5;" width="99.3652" x="591.7192" y="164.0234"/><text fill="#000000" font-family="sans-serif" font-size="12" lengthAdjust="spacing" textLength="79.3652" x="601.7192" y="186.4805">List all projects</text><rect fill="#F1F1F1" height="35.0938" rx="12.5" ry="12.5" style="stroke:#1976D2;stroke-width:0.5;" width="113.375" x="584.7144" y="222.9219"/><text fill="#000000" font-family="sans-serif" font-size="12" lengthAdjust="spacing" textLength="93.375" x="594.7144" y="245.3789">Identify project ID</text><polygon fill="#F1F1F1" points="565.2114,276.0156,577.2114,288.0156,565.2114,300.0156,553.2114,288.0156,565.2114,276.0156" style="stroke:#1976D2;stroke-width:0.5;"/><rect fill="none" height="242.3203" style="stroke:#000000;stroke-width:1.5;" width="470.7837" x="459.8198" y="310.0156"/><path d="M568.6333,310.0156 L568.6333,320.625 L558.6333,330.625 L459.8198,330.625" fill="none" style="stroke:#000000;stroke-width:1.5;"/><text fill="#000000" font-family="sans-serif" font-size="14" lengthAdjust="spacing" textLength="98.8135" x="462.8198" y="325.5488">Discover Nodes</text><path d="M630.2329,340.625 L630.2329,407.0313 L610.2329,411.0313 L630.2329,415.0313 L630.2329,481.4375 A0,0 0 0 0 630.2329,481.4375 L815.2817,481.4375 A0,0 0 0 0 815.2817,481.4375 L815.2817,350.625 L805.2817,340.625 L630.2329,340.625 A0,0 0 0 0 630.2329,340.625" fill="#FEFFDD" style="stroke:#181818;stroke-width:0.5;"/><path d="M805.2817,340.625 L805.2817,350.625 L815.2817,350.625 L805.2817,340.625" fill="#FEFFDD" style="stroke:#181818;stroke-width:0.5;"/><text fill="#000000" font-family="sans-serif" font-size="13" font-weight="bold" lengthAdjust="spacing" textLength="69.3799" x="636.2329" y="359.1201">&#171;resource&#187;</text><text fill="#000000" font-family="sans-serif" font-size="13" lengthAdjust="spacing" textLength="164.0488" x="636.2329" y="375.4717">projects://{project_id}/nodes/</text><text fill="#000000" font-family="sans-serif" font-size="13" lengthAdjust="spacing" textLength="3.6118" x="636.2329" y="391.8232">&#160;</text><text fill="#000000" font-family="sans-serif" font-size="13" lengthAdjust="spacing" textLength="49.1309" x="636.2329" y="408.1748">Returns:</text><text fill="#000000" font-family="sans-serif" font-size="13" lengthAdjust="spacing" textLength="141.6353" x="636.2329" y="424.5264">- Node names and types</text><text fill="#000000" font-family="sans-serif" font-size="13" lengthAdjust="spacing" textLength="146.6816" x="636.2329" y="440.8779">- Status (started/stopped)</text><text fill="#000000" font-family="sans-serif" font-size="13" lengthAdjust="spacing" textLength="80.209" x="636.2329" y="457.2295">- Console info</text><text fill="#000000" font-family="sans-serif" font-size="13" lengthAdjust="spacing" textLength="73.6963" x="636.2329" y="473.5811">- Port counts</text><rect fill="#F1F1F1" height="35.0938" rx="12.5" ry="12.5" style="stroke:#1976D2;stroke-width:0.5;" width="90.043" x="520.1899" y="393.4844"/><text fill="#000000" font-family="sans-serif" font-size="12" lengthAdjust="spacing" textLength="70.043" x="530.1899" y="415.9414">List all nodes</text><path d="M680.603,497.6328 L680.603,514.9844 L660.603,518.9844 L680.603,522.9844 L680.603,540.3359 A0,0 0 0 0 680.603,540.3359 L920.6035,540.3359 A0,0 0 0 0 920.6035,540.3359 L920.6035,507.6328 L910.6035,497.6328 L680.603,497.6328 A0,0 0 0 0 680.603,497.6328" fill="#FEFFDD" style="stroke:#181818;stroke-width:0.5;"/><path d="M910.6035,497.6328 L910.6035,507.6328 L920.6035,507.6328 L910.6035,497.6328" fill="#FEFFDD" style="stroke:#181818;stroke-width:0.5;"/><text fill="#000000" font-family="sans-serif" font-size="13" font-weight="bold" lengthAdjust="spacing" textLength="69.3799" x="686.603" y="516.1279">&#171;resource&#187;</text><text fill="#000000" font-family="sans-serif" font-size="13" lengthAdjust="spacing" textLength="219.0005" x="686.603" y="532.4795">projects://{project_id}/nodes/{node_id}</text><rect fill="#F1F1F1" height="35.0938" rx="12.5" ry="12.5" style="stroke:#1976D2;stroke-width:0.5;" width="190.7832" x="469.8198" y="501.4375"/><text fill="#000000" font-family="sans-serif" font-size="12" lengthAdjust="spacing" textLength="170.7832" x="479.8198" y="523.8945">Get detailed node info (optional)</text><rect fill="none" height="167.0703" style="stroke:#000000;stroke-width:1.5;" width="344.2749" x="494.5161" y="562.3359"/><path d="M595.5435,562.3359 L595.5435,572.9453 L585.5435,582.9453 L494.5161,582.9453" fill="none" style="stroke:#000000;stroke-width:1.5;"/><text fill="#000000" font-family="sans-serif" font-size="14" lengthAdjust="spacing" textLength="91.0273" x="497.5161" y="577.8691">Discover Links</text><path d="M645.9067,592.9453 L645.9067,651.1758 L625.9067,655.1758 L645.9067,659.1758 L645.9067,717.4063 A0,0 0 0 0 645.9067,717.4063 L828.791,717.4063 A0,0 0 0 0 828.791,717.4063 L828.791,602.9453 L818.791,592.9453 L645.9067,592.9453 A0,0 0 0 0 645.9067,592.9453" fill="#FEFFDD" style="stroke:#181818;stroke-width:0.5;"/><path d="M818.791,592.9453 L818.791,602.9453 L828.791,602.9453 L818.791,592.9453" fill="#FEFFDD" style="stroke:#181818;stroke-width:0.5;"/><text fill="#000000" font-family="sans-serif" font-size="13" font-weight="bold" lengthAdjust="spacing" textLength="69.3799" x="651.9067" y="611.4404">&#171;resource&#187;</text><text fill="#000000" font-family="sans-serif" font-size="13" lengthAdjust="spacing" textLength="154.6353" x="651.9067" y="627.792">projects://{project_id}/links/</text><text fill="#000000" font-family="sans-serif" font-size="13" lengthAdjust="spacing" textLength="3.6118" x="651.9067" y="644.1436">&#160;</text><text fill="#000000" font-family="sans-serif" font-size="13" lengthAdjust="spacing" textLength="49.1309" x="651.9067" y="660.4951">Returns:</text><text fill="#000000" font-family="sans-serif" font-size="13" lengthAdjust="spacing" textLength="161.8843" x="651.9067" y="676.8467">- Connected nodes (A &#8596; B)</text><text fill="#000000" font-family="sans-serif" font-size="13" lengthAdjust="spacing" textLength="91.7617" x="651.9067" y="693.1982">- Port mappings</text><text fill="#000000" font-family="sans-serif" font-size="13" lengthAdjust="spacing" textLength="70.0845" x="651.9067" y="709.5498">- Link status</text><rect fill="#F1F1F1" height="35.0938" rx="12.5" ry="12.5" style="stroke:#1976D2;stroke-width:0.5;" width="121.3906" x="504.5161" y="637.6289"/><text fill="#000000" font-family="sans-serif" font-size="12" lengthAdjust="spacing" textLength="101.3906" x="514.5161" y="660.0859">List all connections</text><rect fill="none" height="134.3672" style="stroke:#000000;stroke-width:1.5;" width="358.1797" x="482.8442" y="739.4063"/><path d="M616.5474,739.4063 L616.5474,750.0156 L606.5474,760.0156 L482.8442,760.0156" fill="none" style="stroke:#000000;stroke-width:1.5;"/><text fill="#000000" font-family="sans-serif" font-size="14" lengthAdjust="spacing" textLength="123.7031" x="485.8442" y="754.9395">Discover Templates</text><path d="M657.5786,770.0156 L657.5786,811.8945 L637.5786,815.8945 L657.5786,819.8945 L657.5786,861.7734 A0,0 0 0 0 657.5786,861.7734 L831.0239,861.7734 A0,0 0 0 0 831.0239,861.7734 L831.0239,780.0156 L821.0239,770.0156 L657.5786,770.0156 A0,0 0 0 0 657.5786,770.0156" fill="#FEFFDD" style="stroke:#181818;stroke-width:0.5;"/><path d="M821.0239,770.0156 L821.0239,780.0156 L831.0239,780.0156 L821.0239,770.0156" fill="#FEFFDD" style="stroke:#181818;stroke-width:0.5;"/><text fill="#000000" font-family="sans-serif" font-size="13" font-weight="bold" lengthAdjust="spacing" textLength="69.3799" x="663.5786" y="788.5107">&#171;resource&#187;</text><text fill="#000000" font-family="sans-serif" font-size="13" lengthAdjust="spacing" textLength="67.1963" x="663.5786" y="804.8623">templates://</text><text fill="#000000" font-family="sans-serif" font-size="13" lengthAdjust="spacing" textLength="3.6118" x="663.5786" y="821.2139">&#160;</text><text fill="#000000" font-family="sans-serif" font-size="13" font-weight="bold" lengthAdjust="spacing" textLength="28.8882" x="663.5786" y="837.5654">Note</text><text fill="#000000" font-family="sans-serif" font-size="13" lengthAdjust="spacing" textLength="123.5444" x="692.4668" y="837.5654">: NOT project-scoped</text><text fill="#000000" font-family="sans-serif" font-size="13" lengthAdjust="spacing" textLength="152.4453" x="663.5786" y="853.917">Returns static template list</text><rect fill="#F1F1F1" height="35.0938" rx="12.5" ry="12.5" style="stroke:#1976D2;stroke-width:0.5;" width="144.7344" x="492.8442" y="798.3477"/><text fill="#000000" font-family="sans-serif" font-size="12" lengthAdjust="spacing" textLength="124.7344" x="502.8442" y="820.8047">List available templates</text><rect fill="none" height="167.0703" style="stroke:#000000;stroke-width:1.5;" width="379.7266" x="486.1753" y="883.7734"/><path d="M612.8716,883.7734 L612.8716,894.3828 L602.8716,904.3828 L486.1753,904.3828" fill="none" style="stroke:#000000;stroke-width:1.5;"/><text fill="#000000" font-family="sans-serif" font-size="14" lengthAdjust="spacing" textLength="116.6963" x="489.1753" y="899.3066">Discover Drawings</text><path d="M654.2476,914.3828 L654.2476,972.6133 L634.2476,976.6133 L654.2476,980.6133 L654.2476,1038.8438 A0,0 0 0 0 654.2476,1038.8438 L855.9019,1038.8438 A0,0 0 0 0 855.9019,1038.8438 L855.9019,924.3828 L845.9019,914.3828 L654.2476,914.3828 A0,0 0 0 0 654.2476,914.3828" fill="#FEFFDD" style="stroke:#181818;stroke-width:0.5;"/><path d="M845.9019,914.3828 L845.9019,924.3828 L855.9019,924.3828 L845.9019,914.3828" fill="#FEFFDD" style="stroke:#181818;stroke-width:0.5;"/><text fill="#000000" font-family="sans-serif" font-size="13" font-weight="bold" lengthAdjust="spacing" textLength="69.3799" x="660.2476" y="932.8779">&#171;resource&#187;</text><text fill="#000000" font-family="sans-serif" font-size="13" lengthAdjust="spacing" textLength="180.6543" x="660.2476" y="949.2295">projects://{project_id}/drawings/</text><text fill="#000000" font-family="sans-serif" font-size="13" lengthAdjust="spacing" textLength="3.6118" x="660.2476" y="965.5811">&#160;</text><text fill="#000000" font-family="sans-serif" font-size="13" lengthAdjust="spacing" textLength="49.1309" x="660.2476" y="981.9326">Returns:</text><text fill="#000000" font-family="sans-serif" font-size="13" lengthAdjust="spacing" textLength="119.939" x="660.2476" y="998.2842">- Rectangles (zones)</text><text fill="#000000" font-family="sans-serif" font-size="13" lengthAdjust="spacing" textLength="70.8018" x="660.2476" y="1014.6357">- Text labels</text><text fill="#000000" font-family="sans-serif" font-size="13" lengthAdjust="spacing" textLength="39.019" x="660.2476" y="1030.9873">- Lines</text><rect fill="#F1F1F1" height="35.0938" rx="12.5" ry="12.5" style="stroke:#1976D2;stroke-width:0.5;" width="138.0723" x="496.1753" y="959.0664"/><text fill="#000000" font-family="sans-serif" font-size="12" lengthAdjust="spacing" textLength="118.0723" x="506.1753" y="981.5234">List visual annotations</text><rect fill="#FFE0E0" height="210.4219" style="stroke:#000000;stroke-width:1.5;" width="1067.0654" x="11" y="1117.7627"/><path d="M138.5098,1117.7627 L138.5098,1128.3721 L128.5098,1138.3721 L11,1138.3721" fill="none" style="stroke:#000000;stroke-width:1.5;"/><text fill="#000000" font-family="sans-serif" font-size="14" lengthAdjust="spacing" textLength="117.5098" x="14" y="1133.2959">Visualize Topology</text><path d="M31,1165.3721 L31,1306.1846 L271.6162,1306.1846 L271.6162,1175.3721 L261.6162,1165.3721 L31,1165.3721" fill="#FEFFDD" style="stroke:#181818;stroke-width:0.5;"/><path d="M261.6162,1165.3721 L261.6162,1175.3721 L271.6162,1175.3721 L261.6162,1165.3721" fill="#FEFFDD" style="stroke:#181818;stroke-width:0.5;"/><text fill="#000000" font-family="sans-serif" font-size="13" lengthAdjust="spacing" textLength="20.9473" x="37" y="1183.8672">&#9888;&#65039;</text><text fill="#000000" font-family="sans-serif" font-size="13" font-weight="bold" lengthAdjust="spacing" textLength="149.5444" x="61.5591" y="1183.8672">Visual Topology Access</text><text fill="#000000" font-family="sans-serif" font-size="13" lengthAdjust="spacing" textLength="3.6118" x="37" y="1200.2188">&#160;</text><text fill="#000000" font-family="sans-serif" font-size="13" lengthAdjust="spacing" textLength="190.7598" x="37" y="1216.5703">Only access if agent can process</text><text fill="#000000" font-family="sans-serif" font-size="13" lengthAdjust="spacing" textLength="219.6162" x="37" y="1232.9219">visual information (SVG/PNG formats)</text><text fill="#000000" font-family="sans-serif" font-size="13" lengthAdjust="spacing" textLength="202.3633" x="37" y="1249.2734">and needs node physical locations.</text><text fill="#000000" font-family="sans-serif" font-size="13" lengthAdjust="spacing" textLength="3.6118" x="37" y="1265.625">&#160;</text><text fill="#000000" font-family="sans-serif" font-size="13" lengthAdjust="spacing" textLength="196.5361" x="37" y="1281.9766">Text resources provide same data</text><text fill="#000000" font-family="sans-serif" font-size="13" lengthAdjust="spacing" textLength="115.5972" x="37" y="1298.3281">in structured format.</text><polygon fill="#F1F1F1" points="497.3396,1157.8994,633.0833,1157.8994,645.0833,1169.8994,633.0833,1181.8994,497.3396,1181.8994,485.3396,1169.8994,497.3396,1157.8994" style="stroke:#1976D2;stroke-width:0.5;"/><text fill="#000000" font-family="sans-serif" font-size="11" lengthAdjust="spacing" textLength="135.7437" x="497.3396" y="1174.4004">Agent can process images?</text><text fill="#000000" font-family="sans-serif" font-size="11" lengthAdjust="spacing" textLength="17.1177" x="468.2219" y="1167.4824">yes</text><text fill="#000000" font-family="sans-serif" font-size="11" lengthAdjust="spacing" textLength="80.0991" x="645.0833" y="1167.4824">no - human user</text><path d="M467.0029,1191.8994 L467.0029,1233.7783 L447.0029,1237.7783 L467.0029,1241.7783 L467.0029,1283.6572 A0,0 0 0 0 467.0029,1283.6572 L674.4209,1283.6572 A0,0 0 0 0 674.4209,1283.6572 L674.4209,1201.8994 L664.4209,1191.8994 L467.0029,1191.8994 A0,0 0 0 0 467.0029,1191.8994" fill="#FEFFDD" style="stroke:#181818;stroke-width:0.5;"/><path d="M664.4209,1191.8994 L664.4209,1201.8994 L674.4209,1201.8994 L664.4209,1191.8994" fill="#FEFFDD" style="stroke:#181818;stroke-width:0.5;"/><text fill="#000000" font-family="sans-serif" font-size="13" font-weight="bold" lengthAdjust="spacing" textLength="129.3208" x="473.0029" y="1210.3945">&#171;resource&#187; [VISUAL]</text><text fill="#000000" font-family="sans-serif" font-size="13" lengthAdjust="spacing" textLength="182.1143" x="473.0029" y="1226.7461">diagrams://{project_id}/topology</text><text fill="#000000" font-family="sans-serif" font-size="13" lengthAdjust="spacing" textLength="71.8936" x="473.0029" y="1243.0977">?format=svg</text><text fill="#000000" font-family="sans-serif" font-size="13" lengthAdjust="spacing" textLength="3.6118" x="473.0029" y="1259.4492">&#160;</text><text fill="#000000" font-family="sans-serif" font-size="13" lengthAdjust="spacing" textLength="186.418" x="473.0029" y="1275.8008">Returns scalable vector diagram</text><rect fill="#F1F1F1" height="35.0938" rx="12.5" ry="12.5" style="stroke:#1976D2;stroke-width:0.5;" width="155.3867" x="291.6162" y="1220.2314"/><text fill="#000000" font-family="sans-serif" font-size="12" lengthAdjust="spacing" textLength="135.3867" x="301.6162" y="1242.6885">Access diagram resource</text><path d="M847.8057,1191.8994 L847.8057,1217.4268 L827.8057,1221.4268 L847.8057,1225.4268 L847.8057,1250.9541 A0,0 0 0 0 847.8057,1250.9541 L1066.0654,1250.9541 A0,0 0 0 0 1066.0654,1250.9541 L1066.0654,1201.8994 L1056.0654,1191.8994 L847.8057,1191.8994 A0,0 0 0 0 847.8057,1191.8994" fill="#FEFFDD" style="stroke:#181818;stroke-width:0.5;"/><path d="M1056.0654,1191.8994 L1056.0654,1201.8994 L1066.0654,1201.8994 L1056.0654,1191.8994" fill="#FEFFDD" style="stroke:#181818;stroke-width:0.5;"/><text fill="#000000" font-family="sans-serif" font-size="13" font-weight="bold" lengthAdjust="spacing" textLength="38.2827" x="853.8057" y="1210.3945">&#171;tool&#187;</text><text fill="#000000" font-family="sans-serif" font-size="13" lengthAdjust="spacing" textLength="155.3652" x="895.7002" y="1210.3945">export_topology_diagram()</text><text fill="#000000" font-family="sans-serif" font-size="13" lengthAdjust="spacing" textLength="127.4102" x="853.8057" y="1226.7461">output_path="C:/path"</text><text fill="#000000" font-family="sans-serif" font-size="13" lengthAdjust="spacing" textLength="78.9648" x="853.8057" y="1243.0977">format="both"</text><rect fill="#F1F1F1" height="35.0938" rx="12.5" ry="12.5" style="stroke:#1976D2;stroke-width:0.5;" width="133.3848" x="694.4209" y="1203.8799"/><text fill="#000000" font-family="sans-serif" font-size="12" lengthAdjust="spacing" textLength="113.3848" x="704.4209" y="1226.3369">Export diagram to file</text><polygon fill="#F1F1F1" points="565.2114,1289.6572,577.2114,1301.6572,565.2114,1313.6572,553.2114,1301.6572,565.2114,1289.6572" style="stroke:#1976D2;stroke-width:0.5;"/><polygon fill="#F1F1F1" points="511.3931,1070.8438,619.0298,1070.8438,631.0298,1082.8438,619.0298,1094.8438,511.3931,1094.8438,499.3931,1082.8438,511.3931,1070.8438" style="stroke:#1976D2;stroke-width:0.5;"/><text fill="#000000" font-family="sans-serif" font-size="11" lengthAdjust="spacing" textLength="17.1177" x="569.2114" y="1106.2627">yes</text><text fill="#000000" font-family="sans-serif" font-size="11" lengthAdjust="spacing" textLength="107.6367" x="511.3931" y="1087.3447">Visualization needed?</text><polygon fill="#F1F1F1" points="565.2114,1348.1846,577.2114,1360.1846,565.2114,1372.1846,553.2114,1360.1846,565.2114,1348.1846" style="stroke:#1976D2;stroke-width:0.5;"/><rect fill="none" height="187.0703" style="stroke:#000000;stroke-width:1.5;" width="383.5244" x="481.1685" y="1382.1846"/><path d="M663.147,1382.1846 L663.147,1392.7939 L653.147,1402.7939 L481.1685,1402.7939" fill="none" style="stroke:#000000;stroke-width:1.5;"/><text fill="#000000" font-family="sans-serif" font-size="14" lengthAdjust="spacing" textLength="171.9785" x="484.1685" y="1397.7178">Analyze Topology Structure</text><path d="M659.2544,1412.7939 L659.2544,1446.4971 L639.2544,1450.4971 L659.2544,1454.4971 L659.2544,1488.2002 A0,0 0 0 0 659.2544,1488.2002 L803.7861,1488.2002 A0,0 0 0 0 803.7861,1488.2002 L803.7861,1422.7939 L793.7861,1412.7939 L659.2544,1412.7939 A0,0 0 0 0 659.2544,1412.7939" fill="#FEFFDD" style="stroke:#181818;stroke-width:0.5;"/><path d="M793.7861,1412.7939 L793.7861,1422.7939 L803.7861,1422.7939 L793.7861,1412.7939" fill="#FEFFDD" style="stroke:#181818;stroke-width:0.5;"/><text fill="#000000" font-family="sans-serif" font-size="13" lengthAdjust="spacing" textLength="96.8271" x="665.2544" y="1431.2891">- Hub-and-spoke</text><text fill="#000000" font-family="sans-serif" font-size="13" lengthAdjust="spacing" textLength="103.3081" x="665.2544" y="1447.6406">- Full/partial mesh</text><text fill="#000000" font-family="sans-serif" font-size="13" lengthAdjust="spacing" textLength="123.5317" x="665.2544" y="1463.9922">- Tiered (hierarchical)</text><text fill="#000000" font-family="sans-serif" font-size="13" lengthAdjust="spacing" textLength="69.3672" x="665.2544" y="1480.3438">- Linear/ring</text><rect fill="#F1F1F1" height="35.0938" rx="12.5" ry="12.5" style="stroke:#1976D2;stroke-width:0.5;" width="148.0859" x="491.1685" y="1432.9502"/><text fill="#000000" font-family="sans-serif" font-size="12" lengthAdjust="spacing" textLength="128.0859" x="501.1685" y="1455.4072">Identify topology pattern</text><path d="M655.2349,1498.2002 L655.2349,1523.7275 L635.2349,1527.7275 L655.2349,1531.7275 L655.2349,1557.2549 A0,0 0 0 0 655.2349,1557.2549 L854.6929,1557.2549 A0,0 0 0 0 854.6929,1557.2549 L854.6929,1508.2002 L844.6929,1498.2002 L655.2349,1498.2002 A0,0 0 0 0 655.2349,1498.2002" fill="#FEFFDD" style="stroke:#181818;stroke-width:0.5;"/><path d="M844.6929,1498.2002 L844.6929,1508.2002 L854.6929,1508.2002 L844.6929,1498.2002" fill="#FEFFDD" style="stroke:#181818;stroke-width:0.5;"/><text fill="#000000" font-family="sans-serif" font-size="13" lengthAdjust="spacing" textLength="135.8525" x="661.2349" y="1516.6953">- Single points of failure</text><text fill="#000000" font-family="sans-serif" font-size="13" lengthAdjust="spacing" textLength="178.458" x="661.2349" y="1533.0469">- Core/distribution/access roles</text><text fill="#000000" font-family="sans-serif" font-size="13" lengthAdjust="spacing" textLength="106.9644" x="661.2349" y="1549.3984">- Redundant paths</text><rect fill="#F1F1F1" height="35.0938" rx="12.5" ry="12.5" style="stroke:#1976D2;stroke-width:0.5;" width="140.0469" x="495.188" y="1510.1807"/><text fill="#000000" font-family="sans-serif" font-size="12" lengthAdjust="spacing" textLength="120.0469" x="505.188" y="1532.6377">Identify critical devices</text><path d="M648.895,1579.2549 L648.895,1612.958 L628.895,1616.958 L648.895,1620.958 L648.895,1654.6611 A0,0 0 0 0 648.895,1654.6611 L830.2939,1654.6611 A0,0 0 0 0 830.2939,1654.6611 L830.2939,1589.2549 L820.2939,1579.2549 L648.895,1579.2549 A0,0 0 0 0 648.895,1579.2549" fill="#FEFFDD" style="stroke:#181818;stroke-width:0.5;"/><path d="M820.2939,1579.2549 L820.2939,1589.2549 L830.2939,1589.2549 L820.2939,1579.2549" fill="#FEFFDD" style="stroke:#181818;stroke-width:0.5;"/><text fill="#000000" font-family="sans-serif" font-size="13" font-weight="bold" lengthAdjust="spacing" textLength="71.519" x="654.895" y="1597.75">Next Steps:</text><text fill="#000000" font-family="sans-serif" font-size="13" lengthAdjust="spacing" textLength="158.958" x="654.895" y="1614.1016">- SSH Setup (if automating)</text><text fill="#000000" font-family="sans-serif" font-size="13" lengthAdjust="spacing" textLength="138.0298" x="654.895" y="1630.4531">- Configuration changes</text><text fill="#000000" font-family="sans-serif" font-size="13" lengthAdjust="spacing" textLength="160.3989" x="654.895" y="1646.8047">- Troubleshooting (if issues)</text><rect fill="#90EE90" height="35.0938" rx="12.5" ry="12.5" style="stroke:#1976D2;stroke-width:0.5;" width="127.3672" x="501.5278" y="1599.4111"/><text fill="#000000" font-family="sans-serif" font-size="12" lengthAdjust="spacing" textLength="107.3672" x="511.5278" y="1621.8682">Discovery Complete</text><ellipse cx="565.2114" cy="1685.6611" fill="none" rx="11" ry="11" style="stroke:#222222;stroke-width:1;"/><ellipse cx="565.2114" cy="1685.6611" fill="#222222" rx="6" ry="6" style="stroke:#222222;stroke-width:1;"/><line style="stroke:#181818;stroke-width:1;" x1="641.4019" x2="641.4019" y1="199.1172" y2="222.9219"/><polygon fill="#181818" points="637.4019,212.9219,641.4019,222.9219,645.4019,212.9219,641.4019,216.9219" style="stroke:#181818;stroke-width:1;"/><line style="stroke:#181818;stroke-width:1;" x1="509.7996" x2="489.021" y1="100.6094" y2="100.6094"/><line style="stroke:#181818;stroke-width:1;" x1="489.021" x2="489.021" y1="100.6094" y2="122.6094"/><polygon fill="#181818" points="485.021,112.6094,489.021,122.6094,493.021,112.6094,489.021,116.6094" style="stroke:#181818;stroke-width:1;"/><line style="stroke:#181818;stroke-width:1;" x1="620.6233" x2="641.4019" y1="100.6094" y2="100.6094"/><line style="stroke:#181818;stroke-width:1;" x1="641.4019" x2="641.4019" y1="100.6094" y2="164.0234"/><polygon fill="#181818" points="637.4019,154.0234,641.4019,164.0234,645.4019,154.0234,641.4019,158.0234" style="stroke:#181818;stroke-width:1;"/><line style="stroke:#181818;stroke-width:1;" x1="489.021" x2="489.021" y1="157.7031" y2="288.0156"/><line style="stroke:#181818;stroke-width:1;" x1="489.021" x2="553.2114" y1="288.0156" y2="288.0156"/><polygon fill="#181818" points="543.2114,284.0156,553.2114,288.0156,543.2114,292.0156,547.2114,288.0156" style="stroke:#181818;stroke-width:1;"/><line style="stroke:#181818;stroke-width:1;" x1="641.4019" x2="641.4019" y1="258.0156" y2="288.0156"/><line style="stroke:#181818;stroke-width:1;" x1="641.4019" x2="577.2114" y1="288.0156" y2="288.0156"/><polygon fill="#181818" points="587.2114,284.0156,577.2114,288.0156,587.2114,292.0156,583.2114,288.0156" style="stroke:#181818;stroke-width:1;"/><line style="stroke:#181818;stroke-width:1;" x1="565.2114" x2="565.2114" y1="68.6094" y2="88.6094"/><polygon fill="#181818" points="561.2114,78.6094,565.2114,88.6094,569.2114,78.6094,565.2114,82.6094" style="stroke:#181818;stroke-width:1;"/><line style="stroke:#181818;stroke-width:1;" x1="565.2114" x2="565.2114" y1="428.5781" y2="501.4375"/><polygon fill="#181818" points="561.2114,491.4375,565.2114,501.4375,569.2114,491.4375,565.2114,495.4375" style="stroke:#181818;stroke-width:1;"/><line style="stroke:#181818;stroke-width:1;" x1="565.2114" x2="565.2114" y1="300.0156" y2="393.4844"/><polygon fill="#181818" points="561.2114,383.4844,565.2114,393.4844,569.2114,383.4844,565.2114,387.4844" style="stroke:#181818;stroke-width:1;"/><line style="stroke:#181818;stroke-width:1;" x1="565.2114" x2="565.2114" y1="536.5313" y2="637.6289"/><polygon fill="#181818" points="561.2114,627.6289,565.2114,637.6289,569.2114,627.6289,565.2114,631.6289" style="stroke:#181818;stroke-width:1;"/><line style="stroke:#181818;stroke-width:1;" x1="565.2114" x2="565.2114" y1="672.7227" y2="798.3477"/><polygon fill="#181818" points="561.2114,788.3477,565.2114,798.3477,569.2114,788.3477,565.2114,792.3477" style="stroke:#181818;stroke-width:1;"/><line style="stroke:#181818;stroke-width:1;" x1="565.2114" x2="565.2114" y1="833.4414" y2="959.0664"/><polygon fill="#181818" points="561.2114,949.0664,565.2114,959.0664,569.2114,949.0664,565.2114,953.0664" style="stroke:#181818;stroke-width:1;"/><line style="stroke:#181818;stroke-width:1;" x1="485.3396" x2="369.3096" y1="1169.8994" y2="1169.8994"/><line style="stroke:#181818;stroke-width:1;" x1="369.3096" x2="369.3096" y1="1169.8994" y2="1220.2314"/><polygon fill="#181818" points="365.3096,1210.2314,369.3096,1220.2314,373.3096,1210.2314,369.3096,1214.2314" style="stroke:#181818;stroke-width:1;"/><line style="stroke:#181818;stroke-width:1;" x1="645.0833" x2="761.1133" y1="1169.8994" y2="1169.8994"/><line style="stroke:#181818;stroke-width:1;" x1="761.1133" x2="761.1133" y1="1169.8994" y2="1203.8799"/><polygon fill="#181818" points="757.1133,1193.8799,761.1133,1203.8799,765.1133,1193.8799,761.1133,1197.8799" style="stroke:#181818;stroke-width:1;"/><line style="stroke:#181818;stroke-width:1;" x1="369.3096" x2="369.3096" y1="1255.3252" y2="1301.6572"/><line style="stroke:#181818;stroke-width:1;" x1="369.3096" x2="553.2114" y1="1301.6572" y2="1301.6572"/><polygon fill="#181818" points="543.2114,1297.6572,553.2114,1301.6572,543.2114,1305.6572,547.2114,1301.6572" style="stroke:#181818;stroke-width:1;"/><line style="stroke:#181818;stroke-width:1;" x1="761.1133" x2="761.1133" y1="1238.9736" y2="1301.6572"/><line style="stroke:#181818;stroke-width:1;" x1="761.1133" x2="577.2114" y1="1301.6572" y2="1301.6572"/><polygon fill="#181818" points="587.2114,1297.6572,577.2114,1301.6572,587.2114,1305.6572,583.2114,1301.6572" style="stroke:#181818;stroke-width:1;"/><line style="stroke:#181818;stroke-width:1;" x1="565.2114" x2="565.2114" y1="1094.8438" y2="1157.8994"/><polygon fill="#181818" points="561.2114,1147.8994,565.2114,1157.8994,569.2114,1147.8994,565.2114,1151.8994" style="stroke:#181818;stroke-width:1;"/><line style="stroke:#181818;stroke-width:1;" x1="631.0298" x2="1088.0654" y1="1082.8438" y2="1082.8438"/><polygon fill="#181818" points="1084.0654,1216.9736,1088.0654,1226.9736,1092.0654,1216.9736,1088.0654,1220.9736" style="stroke:#181818;stroke-width:1;"/><line style="stroke:#181818;stroke-width:1;" x1="1088.0654" x2="1088.0654" y1="1082.8438" y2="1360.1846"/><line style="stroke:#181818;stroke-width:1;" x1="1088.0654" x2="577.2114" y1="1360.1846" y2="1360.1846"/><polygon fill="#181818" points="587.2114,1356.1846,577.2114,1360.1846,587.2114,1364.1846,583.2114,1360.1846" style="stroke:#181818;stroke-width:1;"/><line style="stroke:#181818;stroke-width:1;" x1="565.2114" x2="565.2114" y1="1313.6572" y2="1348.1846"/><polygon fill="#181818" points="561.2114,1338.1846,565.2114,1348.1846,569.2114,1338.1846,565.2114,1342.1846" style="stroke:#181818;stroke-width:1;"/><line style="stroke:#181818;stroke-width:1;" x1="565.2114" x2="565.2114" y1="994.1602" y2="1070.8438"/><polygon fill="#181818" points="561.2114,1060.8438,565.2114,1070.8438,569.2114,1060.8438,565.2114,1064.8438" style="stroke:#181818;stroke-width:1;"/><line style="stroke:#181818;stroke-width:1;" x1="565.2114" x2="565.2114" y1="1468.0439" y2="1510.1807"/><polygon fill="#181818" points="561.2114,1500.1807,565.2114,1510.1807,569.2114,1500.1807,565.2114,1504.1807" style="stroke:#181818;stroke-width:1;"/><line style="stroke:#181818;stroke-width:1;" x1="565.2114" x2="565.2114" y1="1372.1846" y2="1432.9502"/><polygon fill="#181818" points="561.2114,1422.9502,565.2114,1432.9502,569.2114,1422.9502,565.2114,1426.9502" style="stroke:#181818;stroke-width:1;"/><line style="stroke:#181818;stroke-width:1;" x1="565.2114" x2="565.2114" y1="1545.2744" y2="1599.4111"/><polygon fill="#181818" points="561.2114,1589.4111,565.2114,1599.4111,569.2114,1589.4111,565.2114,1593.4111" style="stroke:#181818;stroke-width:1;"/><line style="stroke:#181818;stroke-width:1;" x1="565.2114" x2="565.2114" y1="1634.5049" y2="1674.6611"/><polygon fill="#181818" points="561.2114,1664.6611,565.2114,1674.6611,569.2114,1664.6611,565.2114,1668.6611" style="stroke:#181818;stroke-width:1;"/><!--SRC=[hLRDRjj64BxpAGRoHHAWq8s11fRp0qMI7GE6ObYAUoWAOqKEgQsfNM9tgKGnVEsrbvvwwhqlKA2tF4fUeA_GsUMIecK2DT3eGd5sPdQ- -Vc6XfiCOI5pcSbq2nEk8xb1jOKVfBfDClaH4gdWR3O_WWksr86-vI9dYgrXoQBRLCb2n6EoLN1mwduD3HOPlk5c2tS1mDk7wYzVBgJCNh-6W-dHwVFJIPl65MfPg0Yj5da-cXwsQLrpNR2ir9aUbZfInQXyMDyTl_X-yZou3m9jc391m1FeNYhvCqO6T8uHJpZ6RtfWLYYWkqNT8nV33nftfv2N-YS1PYJl2cbr2ANXXai1dJbcrfrtst68oSa5rmPObbNs-iJ9XJG8YgShuru1-lqlVogFzilV_RuNLrR3C7GI5B6p3Khlvp4AmvDjfGVd4-l_FY0zdWH18xwghZ2JCUeolbrqmWgjwLvWhM4rWhhp_szuV1yw9s4PsXMQGWazT2y3Toa8jaODZ22OROxQ7yqDCuM6hgiDng4sCiynxldZiHHQKeDoaKWlkfJAG4GDOAoFPag6PsWWHiDuXh43vUoWAtER1PRrlWt6E_kmxytxxzlpVS75xQDyHr88SacQ_plhcVNVdlLnUOjF1ULu15z_-GtUzfg9NBCyvoAjoc731UrgyWHm2rpd6JDx3RMX_BCb5SrKnqy5MHlOXlTgCxBhzuSmUx-eaZ2Wwwb7cfXTp3ogFK16eJm1mKInZnP-4y364GfrAXcoRrAasD_INgShKcCYpMo9FajHyeyzME0d0vHAufnTUN2_C9REIWxadrsu813ZnupMW5-fxuY_Kx6dPow7DiEa8gYll__npr-_4khITBSmHb64MXD-h_XUP5iYVYi4YeobH54GCM5pOuLUpUVOZgTQbr5tvzTduUNi34gHpm8unh28T3dH-MghUKIscOpAwZohxdRvgegYxOqRJXQQY0TYPfXNuuAwHHKH5O5cexpjMGk_siIEzkC7lYPCUZ-vZe_BN43CMMhNNnN9YJz_nFhxNGG_Nf_FFumkVgeN05JE7hMKyGMe5T-KG5xfJHhKmdewA65k93TaJqlHU_LwDMptuXSSTTkgM1FmGgEg8Ku_vPOrAeX6Ga9a-ny83MrwEoE0plgcYlt6k-dsQdLPcBmmDpapgrUTyJ2qVphrgOVOMSgTz67mRl6rhy0HBO1je-LfzVWcyCDVhzCgFXePOr29bl4VmBjYEQ3M7EXStgANdHPP5hehgJzfswsgGUPeMwsxeYTJqShsRwynqao5YlXXVvtL0KMACDYUZt73erO-fKtABOT0BZbjHf099CJ3XAxU1Wh3cFXDyMLXCnBwALMqNtLDHJ5zM35gUPluVQOvE3wSJeyFXxkFnB4akaL33V0W769jEufpWxaUkcQcyERlO4xjc4FNya9Xf9rxaVO2lwiIdXQgf89eHNpeWgBSqRSUTQvUIMdLdJNNkh1pjykM_Mm8_WK0]--></g></svg>